<?xml version="1.0" encoding="UTF-8"?><svg id="Layer_1" xmlns="http://www.w3.org/2000/svg" viewBox="0 0 530.61 299.24"><defs><style>.cls-1{stroke-linejoin:bevel;}.cls-1,.cls-2{stroke:#34465a;stroke-width:2.7px;}.cls-1,.cls-3{fill:#f08439;}.cls-4{fill:#728386;}.cls-4,.cls-3,.cls-5{stroke-width:0px;}.cls-2{fill:#007589;stroke-miterlimit:10;}.cls-5{fill:#34465a;}</style></defs><path class="cls-5" d="m258.59,110.52l-30.9-2.02c-2.55-11.63-7.13-22.5-13.33-32.22l20.43-23.24c-7.78-10.57-17.11-19.92-27.67-27.71l-23.27,20.41c-9.72-6.22-20.58-10.8-32.2-13.36l-1.98-30.9c-6.41-.98-12.97-1.48-19.65-1.48s-13.15.5-19.5,1.46l-2.03,30.9c-11.62,2.55-22.49,7.12-32.21,13.32l-23.24-20.43c-10.57,7.78-19.92,17.12-27.71,27.67l20.41,23.27c-6.22,9.72-10.8,20.59-13.36,32.2l-30.91,1.98c-.97,6.41-1.47,12.97-1.47,19.65s.49,13.15,1.45,19.51l30.91,2.02c2.55,11.63,7.11,22.49,13.32,32.21l-20.44,23.25c7.78,10.56,17.12,19.91,27.68,27.7l23.26-20.41c9.72,6.23,20.59,10.81,32.21,13.37l1.98,30.9c6.41.97,12.97,1.47,19.65,1.47s13.14-.49,19.5-1.45l2.02-30.89c11.63-2.55,22.5-7.13,32.22-13.34l23.24,20.44c10.57-7.78,19.92-17.12,27.71-27.68l-20.41-23.26c6.22-9.72,10.8-20.59,13.36-32.2l30.9-1.99c.98-6.41,1.48-12.97,1.48-19.65s-.5-13.14-1.45-19.5Zm-128.57,87.61c-37.61,0-68.11-30.5-68.11-68.11s30.5-68.11,68.11-68.11,68.11,30.5,68.11,68.11-30.5,68.11-68.11,68.11Z"/><path class="cls-3" d="m130.02,43.54c-47.77,0-86.48,38.72-86.48,86.48s38.71,86.48,86.48,86.48,86.48-38.71,86.48-86.48-38.72-86.48-86.48-86.48Zm0,152.97c-36.72,0-66.49-29.76-66.49-66.49s29.76-66.48,66.49-66.48,66.49,29.76,66.49,66.48-29.77,66.49-66.49,66.49Z"/><path class="cls-5" d="m130.02,217.84c-48.42,0-87.82-39.4-87.82-87.82s39.4-87.82,87.82-87.82,87.82,39.4,87.82,87.82-39.4,87.82-87.82,87.82Zm0-172.97c-46.95,0-85.15,38.2-85.15,85.15s38.2,85.15,85.15,85.15,85.15-38.2,85.15-85.15-38.2-85.15-85.15-85.15Zm0,152.97c-37.4,0-67.83-30.43-67.83-67.83s30.43-67.81,67.83-67.81,67.83,30.42,67.83,67.81-30.43,67.83-67.83,67.83Zm0-132.97c-35.92,0-65.15,29.22-65.15,65.14s29.23,65.15,65.15,65.15,65.15-29.23,65.15-65.15-29.23-65.14-65.15-65.14Z"/><polygon class="cls-2" points="172.95 133.1 172.95 90.22 107.45 90.22 107.45 260.05 242.4 260.05 242.4 133.1 172.95 133.1"/><polygon class="cls-1" points="242.4 260.05 107.45 260.05 134.11 229.49 154.16 247.51 171.85 229.27 180.74 236.71 206.25 205.16 242.4 230.82 242.4 260.05"/><path class="cls-5" d="m310.57,170.85c-5.81,0-10.82-.96-15.03-2.87-4.21-1.91-7.44-4.97-9.69-9.18-2.26-4.21-3.38-9.79-3.38-16.75v-51.39h18.47v52.08c0,4.05.75,7.19,2.24,9.41,1.49,2.22,3.92,3.33,7.29,3.33s5.81-1.11,7.34-3.33c1.53-2.22,2.29-5.35,2.29-9.41v-52.08h18.58v51.39c0,6.96-1.13,12.54-3.38,16.75-2.26,4.21-5.47,7.27-9.64,9.18-4.17,1.91-9.2,2.87-15.09,2.87Z"/><path class="cls-5" d="m365.86,169.47v-63.1h-19.27v-15.72h57.02v15.72h-19.16v63.1h-18.59Z"/><path class="cls-5" d="m398.1,169.47l21.11-78.81h24.09l21.22,78.81h-19.62l-3.44-14.34h-21.11l-3.33,14.34h-18.93Zm25.35-29.14h15.03l-4.36-19.62c-.16-.61-.34-1.47-.57-2.58-.23-1.11-.46-2.31-.69-3.61-.23-1.3-.48-2.6-.75-3.9-.27-1.3-.52-2.49-.75-3.56h-.8c-.23,1.3-.52,2.81-.86,4.53-.34,1.72-.69,3.38-1.03,4.99-.34,1.61-.63,2.98-.86,4.13l-4.36,19.62Z"/><path class="cls-5" d="m471.18,169.47v-78.81h18.47v30.97h19.16v-30.97h18.47v78.81h-18.47v-32.24h-19.16v32.24h-18.47Z"/><path class="cls-5" d="m297.72,261.89v-63.1h-19.27v-15.72h57.02v15.72h-19.16v63.1h-18.59Z"/><path class="cls-5" d="m343.95,261.89v-78.81h50.94v15.37h-32.35v15.72h27.76v15.26h-27.76v16.98h32.92v15.49h-51.51Z"/><path class="cls-5" d="m434.23,263.27c-7.11,0-12.95-1.47-17.49-4.42-4.55-2.94-7.94-7.44-10.15-13.48-2.22-6.04-3.33-13.69-3.33-22.94,0-13.92,2.64-24.21,7.92-30.86,5.28-6.65,13.19-9.98,23.75-9.98,5.89,0,10.92,1.13,15.09,3.38,4.17,2.26,7.38,5.79,9.64,10.61,2.26,4.82,3.38,11.05,3.38,18.7h-18.01c0-3.75-.36-6.9-1.09-9.46-.73-2.56-1.87-4.49-3.44-5.79-1.57-1.3-3.61-1.95-6.14-1.95-2.91,0-5.26.75-7.06,2.24-1.8,1.49-3.1,3.73-3.9,6.71-.8,2.98-1.2,6.73-1.2,11.24v10.44c0,4.59.4,8.37,1.2,11.36.8,2.98,2.08,5.2,3.84,6.65,1.76,1.45,4.09,2.18,7,2.18,2.6,0,4.74-.63,6.42-1.89,1.68-1.26,2.91-3.15,3.67-5.68.76-2.52,1.15-5.62,1.15-9.29h17.44c0,7.5-1.13,13.61-3.38,18.36-2.26,4.74-5.53,8.24-9.81,10.5-4.28,2.26-9.45,3.38-15.49,3.38Z"/><path class="cls-5" d="m473.12,261.89v-78.81h18.47v30.97h19.16v-30.97h18.47v78.81h-18.47v-32.24h-19.16v32.24h-18.47Z"/><path class="cls-4" d="m3.44,298.85l6.49-22.19h4.29l6.52,22.19h-3.57l-1.54-5.43h-7.21l-1.54,5.43h-3.44Zm5.7-8.31h5.74l-1.87-6.96c-.04-.17-.1-.4-.18-.68-.08-.28-.16-.59-.25-.94-.09-.34-.17-.68-.25-1.02s-.15-.64-.21-.92h-.2c-.07.35-.16.75-.28,1.2s-.23.89-.34,1.31c-.11.42-.21.77-.29,1.05l-1.87,6.96Z"/><path class="cls-4" d="m32.18,299.24c-1.03,0-1.98-.11-2.87-.32-.89-.21-1.66-.58-2.31-1.08s-1.17-1.19-1.54-2.05c-.37-.86-.56-1.94-.56-3.23v-.61h3.34v.65c0,.88.14,1.61.43,2.17s.72.97,1.3,1.23c.58.26,1.29.39,2.15.39.48,0,.92-.04,1.33-.13.4-.09.76-.22,1.08-.4.32-.18.59-.41.82-.68.23-.27.4-.59.53-.97.12-.38.18-.8.18-1.28,0-.67-.15-1.23-.46-1.68-.31-.45-.72-.83-1.23-1.13-.51-.3-1.09-.58-1.72-.83-.63-.25-1.29-.5-1.97-.74-.68-.25-1.34-.53-1.98-.84-.64-.31-1.22-.7-1.74-1.16s-.92-1.03-1.21-1.7c-.29-.67-.44-1.49-.44-2.46,0-1.04.18-1.94.53-2.72.35-.78.84-1.41,1.46-1.91s1.36-.86,2.21-1.1c.85-.24,1.77-.36,2.75-.36s1.89.11,2.72.34,1.55.58,2.15,1.07c.6.49,1.07,1.12,1.41,1.89.34.78.51,1.72.51,2.85v.52h-3.31v-.49c0-.71-.13-1.31-.38-1.79-.25-.49-.63-.86-1.13-1.12s-1.14-.39-1.9-.39c-.72,0-1.35.1-1.89.29-.54.19-.95.51-1.25.94s-.44.98-.44,1.65.15,1.19.46,1.62c.31.43.72.8,1.23,1.1.51.3,1.09.57,1.72.81.63.24,1.29.48,1.97.73.68.25,1.33.53,1.97.84.63.31,1.21.71,1.74,1.18.53.48.93,1.05,1.23,1.73s.44,1.5.44,2.47c0,1.6-.31,2.89-.92,3.88-.61.99-1.47,1.71-2.57,2.17s-2.38.68-3.82.68Z"/><path class="cls-4" d="m51.89,299.24c-1.03,0-1.98-.11-2.87-.32-.89-.21-1.66-.58-2.31-1.08s-1.17-1.19-1.54-2.05c-.37-.86-.56-1.94-.56-3.23v-.61h3.34v.65c0,.88.14,1.61.43,2.17s.72.97,1.3,1.23c.58.26,1.29.39,2.15.39.48,0,.92-.04,1.33-.13.4-.09.76-.22,1.08-.4.32-.18.59-.41.82-.68.23-.27.4-.59.53-.97.12-.38.18-.8.18-1.28,0-.67-.15-1.23-.46-1.68-.31-.45-.72-.83-1.23-1.13-.51-.3-1.09-.58-1.72-.83-.63-.25-1.29-.5-1.97-.74-.68-.25-1.34-.53-1.98-.84-.64-.31-1.22-.7-1.74-1.16s-.92-1.03-1.21-1.7c-.29-.67-.44-1.49-.44-2.46,0-1.04.18-1.94.53-2.72.35-.78.84-1.41,1.46-1.91s1.36-.86,2.21-1.1c.85-.24,1.77-.36,2.75-.36s1.89.11,2.72.34,1.55.58,2.15,1.07c.6.49,1.07,1.12,1.41,1.89.34.78.51,1.72.51,2.85v.52h-3.31v-.49c0-.71-.13-1.31-.38-1.79-.25-.49-.63-.86-1.13-1.12s-1.14-.39-1.9-.39c-.72,0-1.35.1-1.89.29-.54.19-.95.51-1.25.94s-.44.98-.44,1.65.15,1.19.46,1.62c.31.43.72.8,1.23,1.1.51.3,1.09.57,1.72.81.63.24,1.29.48,1.97.73.68.25,1.33.53,1.97.84.63.31,1.21.71,1.74,1.18.53.48.93,1.05,1.23,1.73s.44,1.5.44,2.47c0,1.6-.31,2.89-.92,3.88-.61.99-1.47,1.71-2.57,2.17s-2.38.68-3.82.68Z"/><path class="cls-4" d="m65.26,298.85v-22.19h13.57v2.88h-10.16v6.53h8.98v2.91h-8.98v6.96h10.29v2.91h-13.7Z"/><path class="cls-4" d="m89.46,298.85v-19.28h-5.84v-2.91h15.05v2.91h-5.84v19.28h-3.38Z"/><path class="cls-4" d="m112.27,298.85v-22.19h5.05l3.48,13.42c.06.28.15.64.24,1.07.1.43.2.87.29,1.31.1.44.17.83.21,1.18h.23c.04-.28.1-.63.18-1.03.08-.41.16-.84.26-1.28.1-.44.19-.86.28-1.25l3.44-13.42h5.05v22.19h-3.34v-13.39c0-.47,0-.99.02-1.54s.03-1.08.05-1.59c.02-.51.03-.9.03-1.18h-.2c-.04.24-.11.56-.21.97-.1.41-.2.83-.29,1.28s-.2.84-.31,1.18l-3.74,14.26h-2.82l-3.77-14.26c-.07-.26-.15-.59-.25-.99-.1-.4-.19-.82-.28-1.26-.09-.44-.18-.83-.26-1.18h-.2c.02.41.04.88.05,1.41.01.53.02,1.05.03,1.55s.02.95.02,1.34v13.39h-3.25Z"/><path class="cls-4" d="m136.14,298.85l6.49-22.19h4.29l6.52,22.19h-3.57l-1.54-5.43h-7.21l-1.54,5.43h-3.44Zm5.7-8.31h5.74l-1.87-6.96c-.04-.17-.1-.4-.18-.68-.08-.28-.16-.59-.25-.94-.09-.34-.17-.68-.25-1.02s-.15-.64-.21-.92h-.2c-.07.35-.16.75-.28,1.2s-.23.89-.34,1.31c-.11.42-.21.77-.29,1.05l-1.87,6.96Z"/><path class="cls-4" d="m158.56,298.85v-22.19h3.25l7.15,13.23c.09.13.19.31.29.55s.21.48.31.73c.1.25.18.47.24.66h.16c0-.37,0-.73-.02-1.08-.01-.36-.02-.66-.02-.92v-13.17h3.28v22.19h-3.18l-7.21-13.39c-.11-.24-.25-.55-.43-.95-.18-.4-.33-.78-.46-1.15h-.13v15.49h-3.25Z"/><path class="cls-4" d="m178.33,298.85l6.49-22.19h4.29l6.52,22.19h-3.57l-1.54-5.43h-7.21l-1.54,5.43h-3.44Zm5.7-8.31h5.74l-1.87-6.96c-.04-.17-.1-.4-.18-.68-.08-.28-.16-.59-.25-.94-.09-.34-.17-.68-.25-1.02s-.15-.64-.21-.92h-.2c-.07.35-.16.75-.28,1.2s-.23.89-.34,1.31c-.11.42-.21.77-.29,1.05l-1.87,6.96Z"/><path class="cls-4" d="m208.29,299.24c-2.86,0-5-.94-6.41-2.81s-2.11-4.77-2.11-8.67c0-2.61.34-4.76,1.02-6.45.68-1.69,1.68-2.95,3.02-3.79,1.33-.83,2.97-1.25,4.92-1.25,1.22,0,2.32.17,3.29.5s1.81.84,2.51,1.5c.7.67,1.23,1.51,1.61,2.52s.56,2.19.56,3.53h-3.38c0-.84-.1-1.59-.29-2.23-.2-.65-.49-1.19-.89-1.63-.39-.44-.88-.77-1.47-.99s-1.27-.32-2.03-.32c-.87,0-1.65.15-2.33.45-.68.3-1.24.77-1.69,1.41-.45.64-.79,1.44-1.02,2.43-.23.98-.34,2.16-.34,3.54v1.65c0,1.79.2,3.26.59,4.4.39,1.14.98,1.99,1.75,2.52.78.54,1.74.81,2.9.81s2.13-.23,2.84-.68,1.23-1.12,1.56-1.99c.33-.87.49-1.96.49-3.25v-.52h-5.38v-2.75h8.62v11.68h-2.1l-.33-2.39c-.42.6-.92,1.12-1.51,1.54-.59.42-1.25.73-1.98.94-.73.21-1.54.31-2.41.31Z"/><path class="cls-4" d="m223.44,298.85v-22.19h13.57v2.88h-10.16v6.53h8.98v2.91h-8.98v6.96h10.29v2.91h-13.7Z"/><path class="cls-4" d="m243.4,298.85v-22.19h5.05l3.48,13.42c.06.28.15.64.24,1.07.1.43.2.87.29,1.31.1.44.17.83.21,1.18h.23c.04-.28.1-.63.18-1.03.08-.41.16-.84.26-1.28.1-.44.19-.86.28-1.25l3.44-13.42h5.05v22.19h-3.34v-13.39c0-.47,0-.99.02-1.54s.03-1.08.05-1.59c.02-.51.03-.9.03-1.18h-.2c-.04.24-.11.56-.21.97-.1.41-.2.83-.29,1.28s-.2.84-.31,1.18l-3.74,14.26h-2.82l-3.77-14.26c-.07-.26-.15-.59-.25-.99-.1-.4-.19-.82-.28-1.26-.09-.44-.18-.83-.26-1.18h-.2c.02.41.04.88.05,1.41.01.53.02,1.05.03,1.55s.02.95.02,1.34v13.39h-3.25Z"/><path class="cls-4" d="m269.3,298.85v-22.19h13.57v2.88h-10.16v6.53h8.98v2.91h-8.98v6.96h10.29v2.91h-13.7Z"/><path class="cls-4" d="m289.23,298.85v-22.19h3.25l7.15,13.23c.09.13.19.31.29.55s.21.48.31.73c.1.25.18.47.24.66h.16c0-.37,0-.73-.02-1.08-.01-.36-.02-.66-.02-.92v-13.17h3.28v22.19h-3.18l-7.21-13.39c-.11-.24-.25-.55-.43-.95-.18-.4-.33-.78-.46-1.15h-.13v15.49h-3.25Z"/><path class="cls-4" d="m315.29,298.85v-19.28h-5.84v-2.91h15.05v2.91h-5.84v19.28h-3.38Z"/><path class="cls-4" d="m344.4,299.24c-1.03,0-1.98-.11-2.87-.32-.89-.21-1.66-.58-2.31-1.08s-1.17-1.19-1.54-2.05c-.37-.86-.56-1.94-.56-3.23v-.61h3.34v.65c0,.88.14,1.61.43,2.17s.72.97,1.3,1.23c.58.26,1.29.39,2.15.39.48,0,.92-.04,1.33-.13.4-.09.76-.22,1.08-.4.32-.18.59-.41.82-.68.23-.27.4-.59.53-.97.12-.38.18-.8.18-1.28,0-.67-.15-1.23-.46-1.68-.31-.45-.72-.83-1.23-1.13-.51-.3-1.09-.58-1.72-.83-.63-.25-1.29-.5-1.97-.74-.68-.25-1.34-.53-1.98-.84-.64-.31-1.22-.7-1.74-1.16s-.92-1.03-1.21-1.7c-.29-.67-.44-1.49-.44-2.46,0-1.04.18-1.94.53-2.72.35-.78.84-1.41,1.46-1.91s1.36-.86,2.21-1.1c.85-.24,1.77-.36,2.75-.36s1.89.11,2.72.34,1.55.58,2.15,1.07c.6.49,1.07,1.12,1.41,1.89.34.78.51,1.72.51,2.85v.52h-3.31v-.49c0-.71-.13-1.31-.38-1.79-.25-.49-.63-.86-1.13-1.12s-1.14-.39-1.9-.39c-.72,0-1.35.1-1.89.29-.54.19-.95.51-1.25.94s-.44.98-.44,1.65.15,1.19.46,1.62c.31.43.72.8,1.23,1.1.51.3,1.09.57,1.72.81.63.24,1.29.48,1.97.73.68.25,1.33.53,1.97.84.63.31,1.21.71,1.74,1.18.53.48.93,1.05,1.23,1.73s.44,1.5.44,2.47c0,1.6-.31,2.89-.92,3.88-.61.99-1.47,1.71-2.57,2.17s-2.38.68-3.82.68Z"/><path class="cls-4" d="m357.78,298.85v-22.19h8.03c1.57,0,2.83.29,3.75.86.93.57,1.61,1.37,2.03,2.39s.64,2.2.64,3.54-.24,2.64-.72,3.7-1.19,1.9-2.11,2.51c-.93.6-2.09.91-3.49.91h-4.72v8.28h-3.41Zm3.41-11.19h4.23c1.12,0,1.96-.37,2.53-1.1.57-.73.85-1.74.85-3.01,0-.91-.12-1.65-.36-2.25-.24-.59-.61-1.03-1.11-1.33-.5-.29-1.18-.44-2.03-.44h-4.1v8.12Z"/><path class="cls-4" d="m377.91,298.85v-22.19h13.57v2.88h-10.16v6.53h8.98v2.91h-8.98v6.96h10.29v2.91h-13.7Z"/><path class="cls-4" d="m405.35,299.24c-1.9,0-3.47-.41-4.7-1.25-1.23-.83-2.14-2.09-2.72-3.79-.58-1.69-.87-3.84-.87-6.45,0-3.95.72-6.85,2.16-8.7,1.44-1.85,3.6-2.78,6.46-2.78,1.59,0,2.96.3,4.08.91,1.13.6,1.99,1.54,2.61,2.81.61,1.27.92,2.9.92,4.88h-3.34c0-1.23-.16-2.27-.48-3.14-.32-.86-.8-1.51-1.44-1.94-.65-.43-1.47-.65-2.48-.65-1.09,0-2.02.28-2.77.83-.75.55-1.32,1.4-1.69,2.56-.37,1.15-.56,2.64-.56,4.45v1.65c0,1.79.18,3.26.54,4.4.36,1.14.91,1.99,1.64,2.52.73.54,1.66.81,2.77.81.98,0,1.81-.21,2.49-.63.68-.42,1.18-1.05,1.52-1.89.34-.84.51-1.9.51-3.17h3.28c0,1.98-.33,3.61-.98,4.87-.66,1.26-1.57,2.19-2.75,2.8s-2.58.91-4.2.91Z"/><path class="cls-4" d="m419.47,298.85v-22.19h3.41v22.19h-3.41Z"/><path class="cls-4" d="m428,298.85l6.49-22.19h4.29l6.52,22.19h-3.57l-1.54-5.43h-7.21l-1.54,5.43h-3.44Zm5.7-8.31h5.74l-1.87-6.96c-.04-.17-.1-.4-.18-.68-.08-.28-.16-.59-.25-.94-.09-.34-.17-.68-.25-1.02s-.15-.64-.21-.92h-.2c-.07.35-.16.75-.28,1.2s-.23.89-.34,1.31c-.11.42-.21.77-.29,1.05l-1.87,6.96Z"/><path class="cls-4" d="m450.42,298.85v-22.19h3.41v19.25h8.33v2.94h-11.74Z"/><path class="cls-4" d="m467.66,298.85v-22.19h3.41v22.19h-3.41Z"/><path class="cls-4" d="m484.55,299.24c-1.03,0-1.98-.11-2.87-.32-.89-.21-1.66-.58-2.31-1.08s-1.17-1.19-1.54-2.05c-.37-.86-.56-1.94-.56-3.23v-.61h3.34v.65c0,.88.14,1.61.43,2.17s.72.97,1.3,1.23c.58.26,1.29.39,2.15.39.48,0,.92-.04,1.33-.13.4-.09.76-.22,1.08-.4.32-.18.59-.41.82-.68.23-.27.4-.59.53-.97.12-.38.18-.8.18-1.28,0-.67-.15-1.23-.46-1.68-.31-.45-.72-.83-1.23-1.13-.51-.3-1.09-.58-1.72-.83-.63-.25-1.29-.5-1.97-.74-.68-.25-1.34-.53-1.98-.84-.64-.31-1.22-.7-1.74-1.16s-.92-1.03-1.21-1.7c-.29-.67-.44-1.49-.44-2.46,0-1.04.18-1.94.53-2.72.35-.78.84-1.41,1.46-1.91s1.36-.86,2.21-1.1c.85-.24,1.77-.36,2.75-.36s1.89.11,2.72.34,1.55.58,2.15,1.07c.6.49,1.07,1.12,1.41,1.89.34.78.51,1.72.51,2.85v.52h-3.31v-.49c0-.71-.13-1.31-.38-1.79-.25-.49-.63-.86-1.13-1.12s-1.14-.39-1.9-.39c-.72,0-1.35.1-1.89.29-.54.19-.95.51-1.25.94s-.44.98-.44,1.65.15,1.19.46,1.62c.31.43.72.8,1.23,1.1.51.3,1.09.57,1.72.81.63.24,1.29.48,1.97.73.68.25,1.33.53,1.97.84.63.31,1.21.71,1.74,1.18.53.48.93,1.05,1.23,1.73s.44,1.5.44,2.47c0,1.6-.31,2.89-.92,3.88-.61.99-1.47,1.71-2.57,2.17s-2.38.68-3.82.68Z"/><path class="cls-4" d="m502.18,298.85v-19.28h-5.84v-2.91h15.05v2.91h-5.84v19.28h-3.38Z"/><path class="cls-4" d="m523.29,299.24c-1.03,0-1.98-.11-2.87-.32-.89-.21-1.66-.58-2.31-1.08s-1.17-1.19-1.54-2.05c-.37-.86-.56-1.94-.56-3.23v-.61h3.34v.65c0,.88.14,1.61.43,2.17s.72.97,1.3,1.23c.58.26,1.29.39,2.15.39.48,0,.92-.04,1.33-.13.4-.09.76-.22,1.08-.4.32-.18.59-.41.82-.68.23-.27.4-.59.53-.97.12-.38.18-.8.18-1.28,0-.67-.15-1.23-.46-1.68-.31-.45-.72-.83-1.23-1.13-.51-.3-1.09-.58-1.72-.83-.63-.25-1.29-.5-1.97-.74-.68-.25-1.34-.53-1.98-.84-.64-.31-1.22-.7-1.74-1.16s-.92-1.03-1.21-1.7c-.29-.67-.44-1.49-.44-2.46,0-1.04.18-1.94.53-2.72.35-.78.84-1.41,1.46-1.91s1.36-.86,2.21-1.1c.85-.24,1.77-.36,2.75-.36s1.89.11,2.72.34,1.55.58,2.15,1.07c.6.49,1.07,1.12,1.41,1.89.34.78.51,1.72.51,2.85v.52h-3.31v-.49c0-.71-.13-1.31-.38-1.79-.25-.49-.63-.86-1.13-1.12s-1.14-.39-1.9-.39c-.72,0-1.35.1-1.89.29-.54.19-.95.51-1.25.94s-.44.98-.44,1.65.15,1.19.46,1.62c.31.43.72.8,1.23,1.1.51.3,1.09.57,1.72.81.63.24,1.29.48,1.97.73.68.25,1.33.53,1.97.84.63.31,1.21.71,1.74,1.18.53.48.93,1.05,1.23,1.73s.44,1.5.44,2.47c0,1.6-.31,2.89-.92,3.88-.61.99-1.47,1.71-2.57,2.17s-2.38.68-3.82.68Z"/></svg>